# xmcd
#
# Track frame offsets:
#       150
#       10087
#       17763
#       24129
#       34040
#       42621
#       50439
#       64758
#       70651
#       85114
#       95234
#       108822
#       119434
#       131739
#       142688
#       156502
#       164577
#       177627
#       187638
#       196445
#       207263
#       219425
#       232765
#       240560
#       247987
#       262303
#
# Disc length: 3669 seconds
#
# Revision: 1
# Processed by: cddbd v1.5.1PL0 Copyright (c) Steve Scherf et al.
# Submitted via: MusiCat 1.1
#
DISCID=660e531a
DTITLE=Jacinto Luis Cortez - Piano Caipira
DYEAR=1900
DGENRE=
TTITLE0=Boiadeiro errante
TTITLE1=Flor do cafezal
TTITLE2=Casinha pequenina
TTITLE3=Chalana
TTITLE4=Chico Mineiro
TTITLE5=Colcha de retalhos
TTITLE6=Fio de cabelo
TTITLE7=Galopeira
TTITLE8=Índia
TTITLE9=João de barro
TTITLE10=Luar do sertão
TTITLE11=Mágoa de boiadeiro
TTITLE12=Mjestade o sabiá
TTITLE13=Menino da porteira
TTITLE14=Meu primeiro amor
TTITLE15=Panela velha
TTITLE16=Recuerdos de Ipacaraí
TTITLE17=Romaria
TTITLE18=Saudade de minha terra
TTITLE19=Terra tombada
TTITLE20=Os três boiadeiros
TTITLE21=Tristeza do jeca
TTITLE22=Meu veneno
TTITLE23=De papo pro ar
TTITLE24=Maringá
TTITLE25=Peixe vivo/ Oh! minas gerais
EXTD=\n\n
EXTT0=
EXTT1=
EXTT2=
EXTT3=
EXTT4=
EXTT5=
EXTT6=
EXTT7=
EXTT8=
EXTT9=
EXTT10=
EXTT11=
EXTT12=
EXTT13=
EXTT14=
EXTT15=
EXTT16=
EXTT17=
EXTT18=
EXTT19=
EXTT20=
EXTT21=
EXTT22=
EXTT23=
EXTT24=
EXTT25=
PLAYORDER=
